<?xml version="1.0" encoding="UTF-8"?>
<svg id="uuid-5d7f8f91-0890-476d-9f85-774fe19c0ecd" xmlns="http://www.w3.org/2000/svg"
    viewBox="0 0 261.76 226.69">
    <defs>
        <style>
            .uuid-0bce1b92-9ee1-4cd2-95a8-a45de1cfb538{fill:#ed2b4d;}
            .uuid-891cccd7-573f-4035-b554-e3d9c970ebfa{fill:#fff;}
            .uuid-44efec78-287b-4cb6-b703-95c78fab80cf{fill:#231f20;}</style>
    </defs>
    <path class="uuid-0bce1b92-9ee1-4cd2-95a8-a45de1cfb538"
        d="m227.94,107.45c0,53.49-43.36,96.85-96.85,96.85s-96.86-43.36-96.86-96.85S77.59,10.6,131.09,10.6s96.85,43.36,96.85,96.85" />
    <path class="uuid-891cccd7-573f-4035-b554-e3d9c970ebfa"
        d="m134.68,86.5c-1.23-.05-2.4-.04-3.59-.05-1.19,0-2.36,0-3.59.05-61.19,2.41-70.23,47.19-70.23,47.19,0,0,17.75,52.35,32.55,64.36,8.52,6.91,30.19,18.23,41.27,19.1,11.08-.87,32.75-12.18,41.27-19.1,14.81-12.01,32.55-64.36,32.55-64.36,0,0-9.04-44.78-70.23-47.19" />
    <path class="uuid-891cccd7-573f-4035-b554-e3d9c970ebfa"
        d="m113.66,166.93s-6.96,9.72-15.54,9.72-15.54-9.72-15.54-9.72c0,0,6.96-8.92,15.54-8.92s15.54,8.92,15.54,8.92" />
    <path class="uuid-0bce1b92-9ee1-4cd2-95a8-a45de1cfb538"
        d="m29.56,146.18c36.68,2.11,48.51-29.28,48.51-29.28,0,0,24.51,18.79,62.03,29.38,48.86,13.8,93.34-20.38,93.34-20.38,0,0-36.8-14.4-47.67-72.5-35.97-10.78-86.87,8.02-116.33,22.14-29.46,14.12-18.48,60.82-39.88,70.63" />
    <path class="uuid-891cccd7-573f-4035-b554-e3d9c970ebfa"
        d="m148.51,166.93s6.96,9.72,15.54,9.72,15.54-9.72,15.54-9.72c0,0-6.96-8.92-15.54-8.92s-15.54,8.92-15.54,8.92" />
    <path class="uuid-44efec78-287b-4cb6-b703-95c78fab80cf"
        d="m154.53,163.16c0-.74.09-1.45.25-2.14,2.23-2.5,5.49-4.09,9.13-4.09,3.85,0,7.28,1.77,9.51,4.53.1.55.16,1.12.16,1.71,0,5.26-4.26,9.53-9.53,9.53s-9.52-4.26-9.52-9.53" />
    <path class="uuid-44efec78-287b-4cb6-b703-95c78fab80cf"
        d="m179.93,167.67s-4.72-7.34-14.38-9.18c-9.66-1.84-17.04,8.44-17.04,8.44,0,0,6.01-10.51,12.85-12.28,2.19-.57,4.91-.3,4.91-.3,0,0,3.98-1.64,4.58-1.27.61.37-.76,2.21-.76,2.21,0,0,4.49-1.81,4.78-1.18.29.63-1.3,2.85-1.3,2.85,0,0,5.59-3.4,6.02-2.5.42.9-2.47,3.92-2.47,3.92,0,0,9.14-4.31,9.55-2.64.41,1.67-6.36,6.65-6.36,6.65,0,0,11.67-4.6,11.96-2.87.29,1.74-12.47,8.93-12.47,8.93l.12-.78Z" />
    <path class="uuid-891cccd7-573f-4035-b554-e3d9c970ebfa"
        d="m161.16,163.21c0,1.37-1.11,2.48-2.47,2.48s-2.47-1.11-2.47-2.48,1.11-2.47,2.47-2.47,2.47,1.11,2.47,2.47" />
    <path class="uuid-44efec78-287b-4cb6-b703-95c78fab80cf"
        d="m82.24,167.67s4.72-7.34,14.38-9.18c9.66-1.84,17.04,8.44,17.04,8.44,0,0-6.02-10.51-12.85-12.28-2.19-.57-4.91-.3-4.91-.3,0,0-3.98-1.64-4.58-1.27-.61.37.76,2.21.76,2.21,0,0-4.5-1.81-4.78-1.18-.29.63,1.3,2.85,1.3,2.85,0,0-5.59-3.4-6.01-2.5-.42.9,2.47,3.92,2.47,3.92,0,0-9.14-4.31-9.55-2.64-.41,1.67,6.36,6.65,6.36,6.65,0,0-11.67-4.6-11.96-2.87-.29,1.74,12.46,8.93,12.46,8.93l-.12-.78Z" />
    <path class="uuid-44efec78-287b-4cb6-b703-95c78fab80cf"
        d="m107.64,163.16c0-.74-.09-1.45-.25-2.14-2.23-2.5-5.49-4.09-9.13-4.09-3.85,0-7.28,1.77-9.51,4.53-.1.55-.16,1.12-.16,1.71,0,5.26,4.26,9.53,9.53,9.53s9.52-4.26,9.52-9.53" />
    <path class="uuid-891cccd7-573f-4035-b554-e3d9c970ebfa"
        d="m95.17,163.21c0,1.37-1.11,2.47-2.47,2.47s-2.47-1.11-2.47-2.47,1.11-2.47,2.47-2.47,2.47,1.11,2.47,2.47" />
    <path class="uuid-44efec78-287b-4cb6-b703-95c78fab80cf"
        d="m127.32,180.51c1.05-.63,2.29-.99,3.63-.99s2.58.36,3.63.99c.79.12,1.53.27,2.22.46-1.22-1.86-3.38-3.11-5.85-3.11s-4.63,1.25-5.85,3.11c.69-.19,1.43-.34,2.22-.46" />
    <path class="uuid-44efec78-287b-4cb6-b703-95c78fab80cf"
        d="m84.01,181.79c-.21-.02-5.03-1.5-9.08-5.74-5.43-5.7-5.11-9.94-5.41-11.18l1.18,2.31c.01.06,1.44,4.44,5.23,7.74,4.02,3.5,8.23,5.22,8.28,5.22l-.2,1.65Z" />
    <path class="uuid-44efec78-287b-4cb6-b703-95c78fab80cf"
        d="m178.11,181.79c.21-.02,5.03-1.5,9.08-5.74,5.43-5.7,5.11-9.94,5.41-11.18l-1.19,2.31c-.01.06-1.44,4.44-5.23,7.74-4.02,3.5-8.24,5.22-8.28,5.22l.2,1.65Z" />
    <path class="uuid-44efec78-287b-4cb6-b703-95c78fab80cf"
        d="m124.97,180.85c0,5.44-8.08,13.83-18.82,13.83s-18.82-8.39-18.83-13.7c.37-.81,5.72-2.02,18.94-2.02,10.26,0,17.15.89,18.71,1.59v.3Zm1.6-1.24c-.94-2.72-19.88-2.8-22.03-2.8-14.26,0-21.69,1.14-22.09,3.49,0,7.44,10.14,16.52,21.97,16.52s21.7-8.85,21.97-16.22c.32-.41.24-.82.18-.99" />
    <path class="uuid-44efec78-287b-4cb6-b703-95c78fab80cf"
        d="m137.16,180.55c1.56-.7,8.45-1.59,18.71-1.59,13.22,0,18.57,1.21,18.94,2.02-.01,5.31-8.09,13.7-18.83,13.7s-18.82-8.39-18.82-13.83v-.3Zm-1.42.05c.26,7.38,10.29,16.22,21.97,16.22s21.97-9.08,21.97-16.52c-.4-2.35-7.83-3.49-22.09-3.49-2.16,0-21.09.08-22.03,2.8-.06.18-.14.58.18.99" />
</svg>